<svg width="409" height="112" viewBox="0 0 409 112" fill="none" xmlns="http://www.w3.org/2000/svg">
<path d="M122.32 79.504C118.816 79.504 115.648 78.904 112.816 77.704C110.032 76.504 107.824 74.776 106.192 72.52C104.56 70.264 103.72 67.6 103.672 64.528H114.472C114.616 66.592 115.336 68.224 116.632 69.424C117.976 70.624 119.8 71.224 122.104 71.224C124.456 71.224 126.304 70.672 127.648 69.568C128.992 68.416 129.664 66.928 129.664 65.104C129.664 63.616 129.208 62.392 128.296 61.432C127.384 60.472 126.232 59.728 124.84 59.2C123.496 58.624 121.624 58 119.224 57.328C115.96 56.368 113.296 55.432 111.232 54.52C109.216 53.56 107.464 52.144 105.976 50.272C104.536 48.352 103.816 45.808 103.816 42.64C103.816 39.664 104.56 37.072 106.048 34.864C107.536 32.656 109.624 30.976 112.312 29.824C115 28.624 118.072 28.024 121.528 28.024C126.712 28.024 130.912 29.296 134.128 31.84C137.392 34.336 139.192 37.84 139.528 42.352H128.44C128.344 40.624 127.6 39.208 126.208 38.104C124.864 36.952 123.064 36.376 120.808 36.376C118.84 36.376 117.256 36.88 116.056 37.888C114.904 38.896 114.328 40.36 114.328 42.28C114.328 43.624 114.76 44.752 115.624 45.664C116.536 46.528 117.64 47.248 118.936 47.824C120.28 48.352 122.152 48.976 124.552 49.696C127.816 50.656 130.48 51.616 132.544 52.576C134.608 53.536 136.384 54.976 137.872 56.896C139.36 58.816 140.104 61.336 140.104 64.456C140.104 67.144 139.408 69.64 138.016 71.944C136.624 74.248 134.584 76.096 131.896 77.488C129.208 78.832 126.016 79.504 122.32 79.504ZM156.979 47.392V66.688C156.979 68.032 157.291 69.016 157.915 69.64C158.587 70.216 159.691 70.504 161.227 70.504H165.907V79H159.571C151.075 79 146.827 74.872 146.827 66.616V47.392H142.075V39.112H146.827V29.248H156.979V39.112H165.907V47.392H156.979ZM166.965 58.912C166.965 54.88 167.757 51.304 169.341 48.184C170.973 45.064 173.157 42.664 175.893 40.984C178.677 39.304 181.773 38.464 185.181 38.464C188.157 38.464 190.749 39.064 192.957 40.264C195.213 41.464 197.013 42.976 198.357 44.8V39.112H208.509V79H198.357V73.168C197.061 75.04 195.261 76.6 192.957 77.848C190.701 79.048 188.085 79.648 185.109 79.648C181.749 79.648 178.677 78.784 175.893 77.056C173.157 75.328 170.973 72.904 169.341 69.784C167.757 66.616 166.965 62.992 166.965 58.912ZM198.357 59.056C198.357 56.608 197.877 54.52 196.917 52.792C195.957 51.016 194.661 49.672 193.029 48.76C191.397 47.8 189.645 47.32 187.773 47.32C185.901 47.32 184.173 47.776 182.589 48.688C181.005 49.6 179.709 50.944 178.701 52.72C177.741 54.448 177.261 56.512 177.261 58.912C177.261 61.312 177.741 63.424 178.701 65.248C179.709 67.024 181.005 68.392 182.589 69.352C184.221 70.312 185.949 70.792 187.773 70.792C189.645 70.792 191.397 70.336 193.029 69.424C194.661 68.464 195.957 67.12 196.917 65.392C197.877 63.616 198.357 61.504 198.357 59.056ZM252.914 39.112L228.218 97.864H217.49L226.13 77.992L210.146 39.112H221.45L231.746 66.976L242.186 39.112H252.914ZM296.436 28.744V79H286.356V57.616H264.828V79H254.748V28.744H264.828V49.408H286.356V28.744H296.436ZM339.837 58.192C339.837 59.632 339.741 60.928 339.549 62.08H310.389C310.629 64.96 311.637 67.216 313.413 68.848C315.189 70.48 317.373 71.296 319.965 71.296C323.709 71.296 326.373 69.688 327.957 66.472H338.829C337.677 70.312 335.469 73.48 332.205 75.976C328.941 78.424 324.933 79.648 320.181 79.648C316.341 79.648 312.885 78.808 309.813 77.128C306.789 75.4 304.413 72.976 302.685 69.856C301.005 66.736 300.165 63.136 300.165 59.056C300.165 54.928 301.005 51.304 302.685 48.184C304.365 45.064 306.717 42.664 309.741 40.984C312.765 39.304 316.245 38.464 320.181 38.464C323.973 38.464 327.357 39.28 330.333 40.912C333.357 42.544 335.685 44.872 337.317 47.896C338.997 50.872 339.837 54.304 339.837 58.192ZM329.397 55.312C329.349 52.72 328.413 50.656 326.589 49.12C324.765 47.536 322.533 46.744 319.893 46.744C317.397 46.744 315.285 47.512 313.557 49.048C311.877 50.536 310.845 52.624 310.461 55.312H329.397ZM353.675 45.304C354.971 43.192 356.651 41.536 358.715 40.336C360.827 39.136 363.227 38.536 365.915 38.536V49.12H363.251C360.083 49.12 357.683 49.864 356.051 51.352C354.467 52.84 353.675 55.432 353.675 59.128V79H343.595V39.112H353.675V45.304ZM406.184 58.192C406.184 59.632 406.088 60.928 405.896 62.08H376.736C376.976 64.96 377.984 67.216 379.76 68.848C381.536 70.48 383.72 71.296 386.312 71.296C390.056 71.296 392.72 69.688 394.304 66.472H405.176C404.024 70.312 401.816 73.48 398.552 75.976C395.288 78.424 391.28 79.648 386.528 79.648C382.688 79.648 379.232 78.808 376.16 77.128C373.136 75.4 370.76 72.976 369.032 69.856C367.352 66.736 366.512 63.136 366.512 59.056C366.512 54.928 367.352 51.304 369.032 48.184C370.712 45.064 373.064 42.664 376.088 40.984C379.112 39.304 382.592 38.464 386.528 38.464C390.32 38.464 393.704 39.28 396.68 40.912C399.704 42.544 402.032 44.872 403.664 47.896C405.344 50.872 406.184 54.304 406.184 58.192ZM395.744 55.312C395.696 52.72 394.76 50.656 392.936 49.12C391.112 47.536 388.88 46.744 386.24 46.744C383.744 46.744 381.632 47.512 379.904 49.048C378.224 50.536 377.192 52.624 376.808 55.312H395.744Z" fill="#0937AB"/>
<path d="M81.7064 79.969L76.3649 85.252C72.4274 89.113 67.3199 94.081 61.0379 100.156C59.1498 101.982 56.6262 103.002 53.9999 103.002C51.3735 103.002 48.85 101.982 46.9619 100.156L31.2524 84.874C29.2769 82.9345 27.6254 81.301 26.2934 79.969C20.814 74.4893 17.0826 67.5078 15.571 59.9074C14.0594 52.307 14.8355 44.4291 17.8012 37.2697C20.7668 30.1104 25.7888 23.9913 32.2321 19.6861C38.6754 15.3809 46.2506 13.083 53.9999 13.083C61.7491 13.083 69.3244 15.3809 75.7677 19.6861C82.211 23.9913 87.233 30.1104 90.1986 37.2697C93.1642 44.4291 93.9403 52.307 92.4287 59.9074C90.9171 67.5078 87.1857 74.4893 81.7064 79.969V79.969ZM65.2499 53.5C65.2499 50.5163 64.0646 47.6548 61.9548 45.5451C59.845 43.4353 56.9836 42.25 53.9999 42.25C51.0162 42.25 48.1547 43.4353 46.0449 45.5451C43.9351 47.6548 42.7499 50.5163 42.7499 53.5C42.7499 56.4837 43.9351 59.3452 46.0449 61.455C48.1547 63.5647 51.0162 64.75 53.9999 64.75C56.9836 64.75 59.845 63.5647 61.9548 61.455C64.0646 59.3452 65.2499 56.4837 65.2499 53.5V53.5Z" fill="#0937AB"/>
<ellipse cx="53.4604" cy="51.7088" rx="21.06" ry="19.3981" fill="#0937AB"/>
<path d="M31.5896 54.3179H36.4496V69.0082C36.4496 69.5648 36.7056 70.0985 37.1614 70.4921C37.6171 70.8857 38.2352 71.1068 38.8797 71.1068H68.04C68.6845 71.1068 69.3026 70.8857 69.7583 70.4921C70.2141 70.0985 70.4701 69.5648 70.4701 69.0082V54.3179H75.3301C75.7998 54.3183 76.2594 54.2009 76.6532 53.9799C77.0471 53.759 77.3582 53.4441 77.5488 53.0734C77.7406 52.703 77.8038 52.2923 77.7304 51.8914C77.6571 51.4905 77.4504 51.1167 77.1357 50.8153L55.2654 29.8292C54.3444 28.9436 52.5753 28.9436 51.6543 29.8292L29.784 50.8153C29.4698 51.1168 29.2635 51.4905 29.1901 51.8911C29.1166 52.2918 29.1792 52.7022 29.3702 53.0728C29.5612 53.4434 29.8725 53.7582 30.2664 53.9792C30.6603 54.2001 31.1199 54.3178 31.5896 54.3179V54.3179ZM46.0458 53.6548C46.1211 53.8541 48.0214 58.5151 53.4598 58.5151C58.9736 58.5151 60.852 53.7156 60.8714 53.6652L65.4885 54.9685C65.3694 55.2854 62.4583 62.7123 53.4598 62.7123C44.4614 62.7123 41.5503 55.2854 41.4312 54.9706L46.0458 53.6548Z" fill="white"/>
</svg>
